<svg width="512" height="512" viewBox="0 0 512 512" fill="none" xmlns="http://www.w3.org/2000/svg">
<rect width="512" height="512" rx="80" fill="#9C7BFF"/>
<ellipse cx="256" cy="171" rx="108" ry="106" fill="#D9D9D9"/>
<ellipse cx="256" cy="177.5" rx="98" ry="99.5" fill="#9C7BFF"/>
<rect x="75" y="144" width="361" height="303" rx="40" fill="#E3E9EF"/>
<rect x="75" y="170" width="361" height="223" fill="#F3F9FF"/>
<rect x="75" y="144" width="361" height="249" rx="25" fill="#F3F9FF"/>
<rect x="323" y="170" width="35" height="35" rx="17.5" fill="#9C7BFF"/>
<rect x="166" y="170" width="35" height="35" rx="17.5" fill="#9C7BFF"/>
<path d="M209.2 353.4C200.4 353.4 192.8 351.85 186.4 348.75C180 345.65 174.95 341.35 171.25 335.85C167.65 330.25 165.55 323.75 164.95 316.35L184.75 315.15C185.35 319.75 186.65 323.65 188.65 326.85C190.75 330.05 193.5 332.5 196.9 334.2C200.4 335.8 204.6 336.6 209.5 336.6C213.7 336.6 217.25 336.1 220.15 335.1C223.15 334 225.4 332.45 226.9 330.45C228.5 328.35 229.3 325.8 229.3 322.8C229.3 320.1 228.65 317.7 227.35 315.6C226.05 313.4 223.55 311.45 219.85 309.75C216.15 307.95 210.65 306.2 203.35 304.5C194.55 302.5 187.5 300.25 182.2 297.75C176.9 295.15 173.05 291.95 170.65 288.15C168.25 284.25 167.05 279.4 167.05 273.6C167.05 267.4 168.6 261.95 171.7 257.25C174.8 252.45 179.2 248.75 184.9 246.15C190.6 243.45 197.45 242.1 205.45 242.1C213.95 242.1 221.15 243.65 227.05 246.75C232.95 249.75 237.6 253.9 241 259.2C244.4 264.5 246.5 270.6 247.3 277.5L227.65 278.4C227.15 274.5 225.95 271.1 224.05 268.2C222.25 265.3 219.75 263.05 216.55 261.45C213.45 259.75 209.65 258.9 205.15 258.9C199.55 258.9 195.1 260.2 191.8 262.8C188.6 265.3 187 268.65 187 272.85C187 275.75 187.65 278.15 188.95 280.05C190.35 281.95 192.8 283.6 196.3 285C199.8 286.3 204.7 287.7 211 289.2C220.5 291.2 228.05 293.75 233.65 296.85C239.25 299.95 243.25 303.55 245.65 307.65C248.05 311.75 249.25 316.45 249.25 321.75C249.25 328.25 247.6 333.9 244.3 338.7C241 343.4 236.35 347.05 230.35 349.65C224.35 352.15 217.3 353.4 209.2 353.4ZM285.239 351V261.45H252.839V244.5H336.989V261.45H304.739V351H285.239Z" fill="black"/>
</svg>
